<?xml version="1.0" standalone="no"?>
<!DOCTYPE svg PUBLIC "-//W3C//DTD SVG 20010904//EN"
 "http://www.w3.org/TR/2001/REC-SVG-20010904/DTD/svg10.dtd">
<svg version="1.0" xmlns="http://www.w3.org/2000/svg"
 width="300.000000pt" height="300.000000pt" viewBox="0 0 300.000000 300.000000"
 preserveAspectRatio="xMidYMid meet">
<metadata>
Created by potrace 1.11, written by Peter Selinger 2001-2013
</metadata>
<g transform="translate(0.000000,300.000000) scale(0.100000,-0.100000)"
fill="#000000" stroke="none">
<path d="M1020 2959 c0 -7 -99 -28 -160 -35 -77 -7 -190 -47 -190 -66 0 -4
-14 -15 -30 -23 -29 -15 -31 -19 -29 -68 1 -39 -6 -68 -29 -119 -17 -36 -45
-128 -62 -205 -29 -122 -33 -157 -34 -303 -2 -152 0 -173 25 -268 43 -164 73
-223 225 -452 158 -237 160 -242 168 -420 5 -108 -9 -179 -85 -442 -63 -212
-75 -295 -56 -358 8 -29 45 -58 79 -64 13 -2 22 -8 21 -14 -3 -12 123 -49 197
-58 85 -10 598 -14 575 -4 -16 7 -13 9 17 9 20 1 40 -4 44 -10 9 -15 232 -1
332 22 48 10 126 48 102 49 -8 0 -21 9 -27 19 -10 16 -9 20 6 24 14 3 17 0 14
-14 -7 -25 13 -24 29 0 9 14 17 17 28 11 13 -7 23 -1 41 23 19 26 24 43 22 87
-1 53 -47 221 -97 360 -13 36 -36 115 -50 177 -30 125 -30 202 -2 352 17 92
23 104 106 206 151 185 228 335 275 539 20 84 20 287 0 386 -37 187 -53 250
-87 334 -22 54 -42 121 -45 148 -4 33 -13 57 -29 73 -12 12 -25 21 -27 18 -3
-2 -20 2 -38 10 -19 7 -67 14 -106 15 -40 0 -77 3 -82 6 -5 4 -11 1 -13 -6 -3
-7 -14 -9 -31 -4 -15 3 -26 10 -23 14 2 4 -59 9 -137 10 -78 2 -160 7 -182 12
-22 4 -78 9 -124 9 -46 1 -87 4 -91 6 -18 11 -440 24 -440 14z"/>
<path d="M2159 143 c-13 -16 -12 -17 4 -4 16 13 21 21 13 21 -2 0 -10 -8 -17
-17z"/>
</g>
</svg>
